<svg width="1000" height="1000" viewBox="0 0 1000 1000" fill="none" xmlns="http://www.w3.org/2000/svg">
<rect width="1000" height="1000" fill="white"/>
<path d="M303.016 642C289.344 642 281.141 633.406 281.141 619.344V382.82C281.141 368.758 289.344 360.164 303.016 360.164H380.555C464.344 360.164 513.953 411.727 513.953 500.594C513.953 589.656 464.539 642 380.555 642H303.016ZM324.891 604.109H376.453C436.219 604.109 469.227 567.586 469.227 500.984C469.227 434.578 436.023 397.859 376.453 397.859H324.891V604.109ZM577.625 645.125C563.953 645.125 555.75 636.531 555.75 622.469V382.82C555.75 368.758 563.953 360.164 577.625 360.164H714.344C726.648 360.164 734.852 367.586 734.852 379.109C734.852 390.633 726.453 398.055 714.344 398.055H599.5V487.117H703.992C715.711 487.117 723.719 494.344 723.719 505.477C723.719 516.805 715.711 524.031 703.992 524.031H599.5V622.469C599.5 636.531 591.102 645.125 577.625 645.125Z" fill="url(#paint0_linear_1_28)"/>
<defs>
<linearGradient id="paint0_linear_1_28" x1="499.5" y1="261" x2="499.5" y2="738" gradientUnits="userSpaceOnUse">
<stop offset="0.45" stop-color="#FF1E00"/>
<stop offset="1" stop-color="#CC1800"/>
</linearGradient>
</defs>
</svg>
