<svg width="416" height="116" viewBox="0 0 416 116" fill="none" xmlns="http://www.w3.org/2000/svg">
<path d="M11.5 92.5C8.21875 92.5 6.25 90.4375 6.25 87.0625V30.2969C6.25 26.9219 8.21875 24.8594 11.5 24.8594H30.1094C50.2188 24.8594 62.125 37.2344 62.125 58.5625C62.125 79.9375 50.2656 92.5 30.1094 92.5H11.5ZM16.75 83.4062H29.125C43.4688 83.4062 51.3906 74.6406 51.3906 58.6562C51.3906 42.7188 43.4219 33.9062 29.125 33.9062H16.75V83.4062ZM92.125 93.4375C78.0156 93.4375 68.7344 83.7344 68.7344 67.8438C68.7344 52 78.0625 42.2969 92.125 42.2969C106.188 42.2969 115.516 52 115.516 67.8438C115.516 83.7344 106.234 93.4375 92.125 93.4375ZM92.125 85.0938C100.094 85.0938 105.203 78.8125 105.203 67.8438C105.203 56.9219 100.047 50.6406 92.125 50.6406C84.2031 50.6406 79.0469 56.9219 79.0469 67.8438C79.0469 78.8125 84.2031 85.0938 92.125 85.0938ZM144.438 93.4375C130.328 93.4375 121.141 83.6406 121.141 67.9375C121.141 52.3281 130.281 42.2969 144.344 42.2969C153.859 42.2969 162.016 47.3594 164.172 54.25C164.453 55.0469 164.641 55.8906 164.641 56.5938C164.641 59.1719 162.812 60.7656 160.328 60.7656C158.172 60.7656 156.953 59.9219 155.734 57.6719C153.203 52.9844 149.734 50.7344 144.531 50.7344C136.609 50.7344 131.453 57.3438 131.453 67.8438C131.453 78.5781 136.703 84.9531 144.531 84.9531C150.016 84.9531 153.344 82.5156 155.734 78.25C157.141 75.8125 158.219 74.9688 160.422 74.9688C162.906 74.9688 164.734 76.6562 164.734 79.1875C164.734 79.9844 164.547 80.8281 164.172 81.8125C161.594 88.6094 153.578 93.4375 144.438 93.4375ZM190 93.3906C179.266 93.3906 172.703 86.4062 172.703 75.1094V47.6875C172.703 44.3125 174.766 42.2969 177.766 42.2969C180.719 42.2969 182.828 44.3125 182.828 47.6875V73.1406C182.828 80.6406 186.391 84.6719 193.375 84.6719C200.688 84.6719 205.094 79.6094 205.094 71.9219V47.6875C205.094 44.3125 207.203 42.2969 210.156 42.2969C213.156 42.2969 215.219 44.3125 215.219 47.6875V88.2344C215.219 91.375 213.297 93.3906 210.391 93.3906C207.484 93.3906 205.516 91.375 205.516 88.2812V84.1562H205.281C202.562 90.0625 197.547 93.3906 190 93.3906ZM231.719 93.25C228.438 93.25 226.469 91.1875 226.469 87.8125V30.2969C226.469 26.9219 228.438 24.8594 231.719 24.8594H264.531C267.484 24.8594 269.453 26.6406 269.453 29.4062C269.453 32.1719 267.438 33.9531 264.531 33.9531H236.969V55.3281H262.047C264.859 55.3281 266.781 57.0625 266.781 59.7344C266.781 62.4531 264.859 64.1875 262.047 64.1875H236.969V87.8125C236.969 91.1875 234.953 93.25 231.719 93.25ZM282.062 93.3906C279.109 93.3906 277 91.375 277 88.0469V29.3125C277 25.9844 279.109 23.9688 282.062 23.9688C285.016 23.9688 287.125 25.9844 287.125 29.3125V88.0469C287.125 91.375 285.016 93.3906 282.062 93.3906ZM318.719 93.4375C304.609 93.4375 295.328 83.7344 295.328 67.8438C295.328 52 304.656 42.2969 318.719 42.2969C332.781 42.2969 342.109 52 342.109 67.8438C342.109 83.7344 332.828 93.4375 318.719 93.4375ZM318.719 85.0938C326.688 85.0938 331.797 78.8125 331.797 67.8438C331.797 56.9219 326.641 50.6406 318.719 50.6406C310.797 50.6406 305.641 56.9219 305.641 67.8438C305.641 78.8125 310.797 85.0938 318.719 85.0938ZM364.562 93.3906C361.234 93.3906 359.359 91.8438 358.328 88.2812L347.078 49.5156C346.703 48.3906 346.562 47.5 346.562 46.6562C346.562 44.0312 348.531 42.2969 351.484 42.2969C354.016 42.2969 355.516 43.6562 356.172 46.5156L365.031 82H365.219L374.594 46.8906C375.297 43.8906 377.312 42.2969 380.406 42.2969C383.453 42.2969 385.422 43.8906 386.125 46.8906L395.547 82H395.781L404.641 46.5156C405.297 43.6562 406.75 42.2969 409.281 42.2969C412.234 42.2969 414.156 44.0312 414.156 46.6562C414.156 47.5 414.016 48.3438 413.688 49.5156L402.438 88.2812C401.453 91.75 399.391 93.3906 396.062 93.3906C392.547 93.3906 390.578 91.8906 389.641 88.2812L380.406 55.5625H380.172L371.031 88.2812C370.094 91.75 367.984 93.3906 364.562 93.3906Z" fill="url(#paint0_linear_1_36)"/>
<defs>
<linearGradient id="paint0_linear_1_36" x1="0" y1="58" x2="416" y2="58" gradientUnits="userSpaceOnUse">
<stop offset="0.535" stop-color="#FF1E00"/>
<stop offset="1" stop-color="#CC1800"/>
</linearGradient>
</defs>
</svg>
