<svg width="200" height="200" viewBox="0 0 200 200" fill="none" xmlns="http://www.w3.org/2000/svg">
<circle opacity="0.99" cx="100" cy="100" r="100" fill="#4EDBFC"/>
<path d="M47 82.5C47 89.4036 41.4036 95 34.5 95C27.5964 95 22 89.4036 22 82.5C22 75.5964 27.5964 70 34.5 70C41.4036 70 47 75.5964 47 82.5Z" fill="black"/>
<path d="M179 82.5C179 89.4036 173.404 95 166.5 95C159.596 95 154 89.4036 154 82.5C154 75.5964 159.596 70 166.5 70C173.404 70 179 75.5964 179 82.5Z" fill="black"/>
<rect x="76" y="88" width="47" height="25" rx="3" fill="black"/>
<ellipse cx="99.5" cy="110" rx="23.5" ry="22" fill="black"/>
<path d="M100.084 132C98.0837 128 89.8 119.7 77 116.5C77.5 119 84 132.5 100.084 132Z" fill="#FF6868"/>
</svg>
